<svg width="18" height="18" viewBox="0 0 18 18" fill="none" xmlns="http://www.w3.org/2000/svg">
<rect width="18" height="18" rx="9" fill="black"/>
<path d="M2.528 6.948H6.92V8.112L4.196 10.824H6.92V12H2.528V10.836L5.264 8.124H2.528V6.948ZM7.97722 10.008V6.948H9.22522V9.876C9.22522 10.596 9.69322 10.956 10.2932 10.956C10.9532 10.956 11.3612 10.524 11.3612 9.828V6.948H12.5972V12H11.3612V11.484C11.1092 11.856 10.6892 12.156 9.99322 12.156C8.80522 12.156 7.97722 11.424 7.97722 10.008ZM14.8086 6.192C14.3286 6.192 13.9926 5.832 13.9926 5.376C13.9926 4.944 14.3286 4.572 14.8086 4.572C15.2406 4.572 15.6126 4.944 15.6126 5.376C15.6126 5.832 15.2526 6.192 14.8086 6.192ZM15.5406 6.948V12H14.2926V8.184H13.8126V6.948H15.5406Z" fill="white"/>
</svg>
